<?xml version="1.0" encoding="UTF-8" standalone="no"?>
<!DOCTYPE svg PUBLIC "-//W3C//DTD SVG 1.1//EN" "http://www.w3.org/Graphics/SVG/1.1/DTD/svg11.dtd">
<!-- 由 Microsoft Visio, SVG Export 生成 基于内容的推荐.svg Page-1 -->
<svg xmlns="http://www.w3.org/2000/svg" xmlns:xlink="http://www.w3.org/1999/xlink" xmlns:ev="http://www.w3.org/2001/xml-events"
		xmlns:v="http://schemas.microsoft.com/visio/2003/SVGExtensions/" width="11.6929in" height="8.26772in"
		viewBox="0 0 841.89 595.276" xml:space="preserve" color-interpolation-filters="sRGB" class="st8">
	<v:documentProperties v:langID="2052" v:metric="true" v:viewMarkup="false">
		<v:userDefs>
			<v:ud v:nameU="msvSubprocessMaster" v:prompt="" v:val="VT4(Rectangle)"/>
			<v:ud v:nameU="msvNoAutoConnect" v:val="VT0(1):26"/>
		</v:userDefs>
	</v:documentProperties>

	<style type="text/css">
	<![CDATA[
		.st1 {visibility:visible}
		.st2 {fill:#5b9bd5;fill-opacity:0.22;filter:url(#filter_2);stroke:#5b9bd5;stroke-opacity:0.22}
		.st3 {fill:#ffffff;stroke:#000000;stroke-width:0.25}
		.st4 {fill:#000000;font-family:宋体;font-size:1.33333em}
		.st5 {marker-end:url(#mrkr4-42);stroke:#000000;stroke-linecap:round;stroke-linejoin:round;stroke-width:1}
		.st6 {fill:#000000;fill-opacity:1;stroke:#000000;stroke-opacity:1;stroke-width:0.28409090909091}
		.st7 {fill:#ffffff;stroke:none;stroke-linecap:butt;stroke-width:7.2}
		.st8 {fill:none;fill-rule:evenodd;font-size:12px;overflow:visible;stroke-linecap:square;stroke-miterlimit:3}
	]]>
	</style>

	<defs id="Markers">
		<g id="lend4">
			<path d="M 2 1 L 0 0 L 2 -1 L 2 1 " style="stroke:none"/>
		</g>
		<marker id="mrkr4-42" class="st6" v:arrowType="4" v:arrowSize="2" v:setback="7.04" refX="-7.04" orient="auto"
				markerUnits="strokeWidth" overflow="visible">
			<use xlink:href="#lend4" transform="scale(-3.52,-3.52) "/>
		</marker>
	</defs>
	<defs id="Filters">
		<filter id="filter_2">
			<feGaussianBlur stdDeviation="2"/>
		</filter>
	</defs>
	<g v:mID="0" v:index="1" v:groupContext="foregroundPage">
		<v:userDefs>
			<v:ud v:nameU="msvThemeOrder" v:val="VT0(0):26"/>
		</v:userDefs>
		<title>页-1</title>
		<v:pageProperties v:drawingScale="0.0393701" v:pageScale="0.0393701" v:drawingUnits="24" v:shadowOffsetX="8.50394"
				v:shadowOffsetY="-8.50394"/>
		<v:layer v:name="连接线" v:index="0"/>
		<g id="shape2-1" v:mID="2" v:groupContext="shape" transform="translate(141.732,-467.717)">
			<title>圆角矩形</title>
			<desc>歌曲</desc>
			<v:userDefs>
				<v:ud v:nameU="CTypeTopLeftSnip" v:prompt="" v:val="VT0(0):5"/>
				<v:ud v:nameU="CTypeTopRightSnip" v:prompt="" v:val="VT0(0):5"/>
				<v:ud v:nameU="CTypeBotLeftSnip" v:prompt="" v:val="VT0(0):5"/>
				<v:ud v:nameU="CTypeBotRightSnip" v:prompt="" v:val="VT0(0):5"/>
				<v:ud v:nameU="CornerLockHoriz" v:prompt="" v:val="VT0(1):5"/>
				<v:ud v:nameU="CornerLockVert" v:prompt="" v:val="VT0(1):5"/>
				<v:ud v:nameU="CornerLockDiag" v:prompt="" v:val="VT0(0):5"/>
				<v:ud v:nameU="TopLeftOffset" v:prompt="" v:val="VT0(0.15748031496063):24"/>
				<v:ud v:nameU="TopRightOffset" v:prompt="" v:val="VT0(0.15748031496063):24"/>
				<v:ud v:nameU="BotLeftOffset" v:prompt="" v:val="VT0(0.15748031496063):24"/>
				<v:ud v:nameU="BotRightOffset" v:prompt="" v:val="VT0(0.15748031496063):24"/>
				<v:ud v:nameU="visVersion" v:prompt="" v:val="VT0(15):26"/>
			</v:userDefs>
			<v:textBlock v:margins="rect(4,4,4,4)" v:tabSpace="42.5197"/>
			<v:textRect cx="56.6929" cy="566.929" width="113.39" height="56.6929"/>
			<g id="shadow2-2" v:groupContext="shadow" v:shadowOffsetX="0.345598" v:shadowOffsetY="-1.97279" v:shadowType="1"
					transform="matrix(1,0,0,1,0.345598,1.97279)" class="st1">
				<path d="M11.34 595.28 L102.05 595.28 A11.3384 11.3384 -180 0 0 113.39 583.94 L113.39 549.92 A11.3384 11.3384 -180
							 0 0 102.05 538.58 L11.34 538.58 A11.3384 11.3384 -180 0 0 0 549.92 L0 583.94 A11.3384 11.3384 -180 0
							 0 11.34 595.28 Z" class="st2"/>
			</g>
			<path d="M11.34 595.28 L102.05 595.28 A11.3384 11.3384 -180 0 0 113.39 583.94 L113.39 549.92 A11.3384 11.3384 -180 0
						 0 102.05 538.58 L11.34 538.58 A11.3384 11.3384 -180 0 0 0 549.92 L0 583.94 A11.3384 11.3384 -180 0 0 11.34
						 595.28 Z" class="st3"/>
			<text x="40.69" y="571.73" class="st4" v:langID="2052"><v:paragraph v:horizAlign="1"/><v:tabList/>歌曲</text>		</g>
		<g id="shape3-7" v:mID="3" v:groupContext="shape" transform="translate(382.677,-467.717)">
			<title>圆角矩形.3</title>
			<desc>歌曲特征</desc>
			<v:userDefs>
				<v:ud v:nameU="CTypeTopLeftSnip" v:prompt="" v:val="VT0(0):5"/>
				<v:ud v:nameU="CTypeTopRightSnip" v:prompt="" v:val="VT0(0):5"/>
				<v:ud v:nameU="CTypeBotLeftSnip" v:prompt="" v:val="VT0(0):5"/>
				<v:ud v:nameU="CTypeBotRightSnip" v:prompt="" v:val="VT0(0):5"/>
				<v:ud v:nameU="CornerLockHoriz" v:prompt="" v:val="VT0(1):5"/>
				<v:ud v:nameU="CornerLockVert" v:prompt="" v:val="VT0(1):5"/>
				<v:ud v:nameU="CornerLockDiag" v:prompt="" v:val="VT0(0):5"/>
				<v:ud v:nameU="TopLeftOffset" v:prompt="" v:val="VT0(0.15748031496063):24"/>
				<v:ud v:nameU="TopRightOffset" v:prompt="" v:val="VT0(0.15748031496063):24"/>
				<v:ud v:nameU="BotLeftOffset" v:prompt="" v:val="VT0(0.15748031496063):24"/>
				<v:ud v:nameU="BotRightOffset" v:prompt="" v:val="VT0(0.15748031496063):24"/>
				<v:ud v:nameU="visVersion" v:prompt="" v:val="VT0(15):26"/>
			</v:userDefs>
			<v:textBlock v:margins="rect(4,4,4,4)" v:tabSpace="42.5197"/>
			<v:textRect cx="56.6929" cy="566.929" width="113.39" height="56.6929"/>
			<g id="shadow3-8" v:groupContext="shadow" v:shadowOffsetX="0.345598" v:shadowOffsetY="-1.97279" v:shadowType="1"
					transform="matrix(1,0,0,1,0.345598,1.97279)" class="st1">
				<path d="M11.34 595.28 L102.05 595.28 A11.3384 11.3384 -180 0 0 113.39 583.94 L113.39 549.92 A11.3384 11.3384 -180
							 0 0 102.05 538.58 L11.34 538.58 A11.3384 11.3384 -180 0 0 0 549.92 L0 583.94 A11.3384 11.3384 -180 0
							 0 11.34 595.28 Z" class="st2"/>
			</g>
			<path d="M11.34 595.28 L102.05 595.28 A11.3384 11.3384 -180 0 0 113.39 583.94 L113.39 549.92 A11.3384 11.3384 -180 0
						 0 102.05 538.58 L11.34 538.58 A11.3384 11.3384 -180 0 0 0 549.92 L0 583.94 A11.3384 11.3384 -180 0 0 11.34
						 595.28 Z" class="st3"/>
			<text x="24.69" y="571.73" class="st4" v:langID="2052"><v:paragraph v:horizAlign="1"/><v:tabList/>歌曲特征</text>		</g>
		<g id="shape4-13" v:mID="4" v:groupContext="shape" transform="translate(382.677,-269.291)">
			<title>圆角矩形.4</title>
			<desc>用户喜好特征</desc>
			<v:userDefs>
				<v:ud v:nameU="CTypeTopLeftSnip" v:prompt="" v:val="VT0(0):5"/>
				<v:ud v:nameU="CTypeTopRightSnip" v:prompt="" v:val="VT0(0):5"/>
				<v:ud v:nameU="CTypeBotLeftSnip" v:prompt="" v:val="VT0(0):5"/>
				<v:ud v:nameU="CTypeBotRightSnip" v:prompt="" v:val="VT0(0):5"/>
				<v:ud v:nameU="CornerLockHoriz" v:prompt="" v:val="VT0(1):5"/>
				<v:ud v:nameU="CornerLockVert" v:prompt="" v:val="VT0(1):5"/>
				<v:ud v:nameU="CornerLockDiag" v:prompt="" v:val="VT0(0):5"/>
				<v:ud v:nameU="TopLeftOffset" v:prompt="" v:val="VT0(0.15748031496063):24"/>
				<v:ud v:nameU="TopRightOffset" v:prompt="" v:val="VT0(0.15748031496063):24"/>
				<v:ud v:nameU="BotLeftOffset" v:prompt="" v:val="VT0(0.15748031496063):24"/>
				<v:ud v:nameU="BotRightOffset" v:prompt="" v:val="VT0(0.15748031496063):24"/>
				<v:ud v:nameU="visVersion" v:prompt="" v:val="VT0(15):26"/>
			</v:userDefs>
			<v:textBlock v:margins="rect(4,4,4,4)" v:tabSpace="42.5197"/>
			<v:textRect cx="56.6929" cy="566.929" width="113.39" height="56.6929"/>
			<g id="shadow4-14" v:groupContext="shadow" v:shadowOffsetX="0.345598" v:shadowOffsetY="-1.97279" v:shadowType="1"
					transform="matrix(1,0,0,1,0.345598,1.97279)" class="st1">
				<path d="M11.34 595.28 L102.05 595.28 A11.3384 11.3384 -180 0 0 113.39 583.94 L113.39 549.92 A11.3384 11.3384 -180
							 0 0 102.05 538.58 L11.34 538.58 A11.3384 11.3384 -180 0 0 0 549.92 L0 583.94 A11.3384 11.3384 -180 0
							 0 11.34 595.28 Z" class="st2"/>
			</g>
			<path d="M11.34 595.28 L102.05 595.28 A11.3384 11.3384 -180 0 0 113.39 583.94 L113.39 549.92 A11.3384 11.3384 -180 0
						 0 102.05 538.58 L11.34 538.58 A11.3384 11.3384 -180 0 0 0 549.92 L0 583.94 A11.3384 11.3384 -180 0 0 11.34
						 595.28 Z" class="st3"/>
			<text x="8.69" y="571.73" class="st4" v:langID="2052"><v:paragraph v:horizAlign="1"/><v:tabList/>用户喜好特征</text>		</g>
		<g id="shape5-19" v:mID="5" v:groupContext="shape" transform="translate(155.906,-113.386)">
			<title>圆角矩形.5</title>
			<desc>用户</desc>
			<v:userDefs>
				<v:ud v:nameU="CTypeTopLeftSnip" v:prompt="" v:val="VT0(0):5"/>
				<v:ud v:nameU="CTypeTopRightSnip" v:prompt="" v:val="VT0(0):5"/>
				<v:ud v:nameU="CTypeBotLeftSnip" v:prompt="" v:val="VT0(0):5"/>
				<v:ud v:nameU="CTypeBotRightSnip" v:prompt="" v:val="VT0(0):5"/>
				<v:ud v:nameU="CornerLockHoriz" v:prompt="" v:val="VT0(1):5"/>
				<v:ud v:nameU="CornerLockVert" v:prompt="" v:val="VT0(1):5"/>
				<v:ud v:nameU="CornerLockDiag" v:prompt="" v:val="VT0(0):5"/>
				<v:ud v:nameU="TopLeftOffset" v:prompt="" v:val="VT0(0.15748031496063):24"/>
				<v:ud v:nameU="TopRightOffset" v:prompt="" v:val="VT0(0.15748031496063):24"/>
				<v:ud v:nameU="BotLeftOffset" v:prompt="" v:val="VT0(0.15748031496063):24"/>
				<v:ud v:nameU="BotRightOffset" v:prompt="" v:val="VT0(0.15748031496063):24"/>
				<v:ud v:nameU="visVersion" v:prompt="" v:val="VT0(15):26"/>
			</v:userDefs>
			<v:textBlock v:margins="rect(4,4,4,4)" v:tabSpace="42.5197"/>
			<v:textRect cx="56.6929" cy="566.929" width="113.39" height="56.6929"/>
			<g id="shadow5-20" v:groupContext="shadow" v:shadowOffsetX="0.345598" v:shadowOffsetY="-1.97279" v:shadowType="1"
					transform="matrix(1,0,0,1,0.345598,1.97279)" class="st1">
				<path d="M11.34 595.28 L102.05 595.28 A11.3384 11.3384 -180 0 0 113.39 583.94 L113.39 549.92 A11.3384 11.3384 -180
							 0 0 102.05 538.58 L11.34 538.58 A11.3384 11.3384 -180 0 0 0 549.92 L0 583.94 A11.3384 11.3384 -180 0
							 0 11.34 595.28 Z" class="st2"/>
			</g>
			<path d="M11.34 595.28 L102.05 595.28 A11.3384 11.3384 -180 0 0 113.39 583.94 L113.39 549.92 A11.3384 11.3384 -180 0
						 0 102.05 538.58 L11.34 538.58 A11.3384 11.3384 -180 0 0 0 549.92 L0 583.94 A11.3384 11.3384 -180 0 0 11.34
						 595.28 Z" class="st3"/>
			<text x="40.69" y="571.73" class="st4" v:langID="2052"><v:paragraph v:horizAlign="1"/><v:tabList/>用户</text>		</g>
		<g id="shape6-25" v:mID="6" v:groupContext="shape" transform="translate(382.677,-113.386)">
			<title>圆角矩形.6</title>
			<desc>用户历史行为</desc>
			<v:userDefs>
				<v:ud v:nameU="CTypeTopLeftSnip" v:prompt="" v:val="VT0(0):5"/>
				<v:ud v:nameU="CTypeTopRightSnip" v:prompt="" v:val="VT0(0):5"/>
				<v:ud v:nameU="CTypeBotLeftSnip" v:prompt="" v:val="VT0(0):5"/>
				<v:ud v:nameU="CTypeBotRightSnip" v:prompt="" v:val="VT0(0):5"/>
				<v:ud v:nameU="CornerLockHoriz" v:prompt="" v:val="VT0(1):5"/>
				<v:ud v:nameU="CornerLockVert" v:prompt="" v:val="VT0(1):5"/>
				<v:ud v:nameU="CornerLockDiag" v:prompt="" v:val="VT0(0):5"/>
				<v:ud v:nameU="TopLeftOffset" v:prompt="" v:val="VT0(0.15748031496063):24"/>
				<v:ud v:nameU="TopRightOffset" v:prompt="" v:val="VT0(0.15748031496063):24"/>
				<v:ud v:nameU="BotLeftOffset" v:prompt="" v:val="VT0(0.15748031496063):24"/>
				<v:ud v:nameU="BotRightOffset" v:prompt="" v:val="VT0(0.15748031496063):24"/>
				<v:ud v:nameU="visVersion" v:prompt="" v:val="VT0(15):26"/>
			</v:userDefs>
			<v:textBlock v:margins="rect(4,4,4,4)" v:tabSpace="42.5197"/>
			<v:textRect cx="56.6929" cy="566.929" width="113.39" height="56.6929"/>
			<g id="shadow6-26" v:groupContext="shadow" v:shadowOffsetX="0.345598" v:shadowOffsetY="-1.97279" v:shadowType="1"
					transform="matrix(1,0,0,1,0.345598,1.97279)" class="st1">
				<path d="M11.34 595.28 L102.05 595.28 A11.3384 11.3384 -180 0 0 113.39 583.94 L113.39 549.92 A11.3384 11.3384 -180
							 0 0 102.05 538.58 L11.34 538.58 A11.3384 11.3384 -180 0 0 0 549.92 L0 583.94 A11.3384 11.3384 -180 0
							 0 11.34 595.28 Z" class="st2"/>
			</g>
			<path d="M11.34 595.28 L102.05 595.28 A11.3384 11.3384 -180 0 0 113.39 583.94 L113.39 549.92 A11.3384 11.3384 -180 0
						 0 102.05 538.58 L11.34 538.58 A11.3384 11.3384 -180 0 0 0 549.92 L0 583.94 A11.3384 11.3384 -180 0 0 11.34
						 595.28 Z" class="st3"/>
			<text x="8.69" y="571.73" class="st4" v:langID="2052"><v:paragraph v:horizAlign="1"/><v:tabList/>用户历史行为</text>		</g>
		<g id="shape7-31" v:mID="7" v:groupContext="shape" transform="translate(155.906,-269.291)">
			<title>圆角矩形.7</title>
			<desc>推荐引擎</desc>
			<v:userDefs>
				<v:ud v:nameU="CTypeTopLeftSnip" v:prompt="" v:val="VT0(0):5"/>
				<v:ud v:nameU="CTypeTopRightSnip" v:prompt="" v:val="VT0(0):5"/>
				<v:ud v:nameU="CTypeBotLeftSnip" v:prompt="" v:val="VT0(0):5"/>
				<v:ud v:nameU="CTypeBotRightSnip" v:prompt="" v:val="VT0(0):5"/>
				<v:ud v:nameU="CornerLockHoriz" v:prompt="" v:val="VT0(1):5"/>
				<v:ud v:nameU="CornerLockVert" v:prompt="" v:val="VT0(1):5"/>
				<v:ud v:nameU="CornerLockDiag" v:prompt="" v:val="VT0(0):5"/>
				<v:ud v:nameU="TopLeftOffset" v:prompt="" v:val="VT0(0.15748031496063):24"/>
				<v:ud v:nameU="TopRightOffset" v:prompt="" v:val="VT0(0.15748031496063):24"/>
				<v:ud v:nameU="BotLeftOffset" v:prompt="" v:val="VT0(0.15748031496063):24"/>
				<v:ud v:nameU="BotRightOffset" v:prompt="" v:val="VT0(0.15748031496063):24"/>
				<v:ud v:nameU="visVersion" v:prompt="" v:val="VT0(15):26"/>
			</v:userDefs>
			<v:textBlock v:margins="rect(4,4,4,4)" v:tabSpace="42.5197"/>
			<v:textRect cx="56.6929" cy="566.929" width="113.39" height="56.6929"/>
			<g id="shadow7-32" v:groupContext="shadow" v:shadowOffsetX="0.345598" v:shadowOffsetY="-1.97279" v:shadowType="1"
					transform="matrix(1,0,0,1,0.345598,1.97279)" class="st1">
				<path d="M11.34 595.28 L102.05 595.28 A11.3384 11.3384 -180 0 0 113.39 583.94 L113.39 549.92 A11.3384 11.3384 -180
							 0 0 102.05 538.58 L11.34 538.58 A11.3384 11.3384 -180 0 0 0 549.92 L0 583.94 A11.3384 11.3384 -180 0
							 0 11.34 595.28 Z" class="st2"/>
			</g>
			<path d="M11.34 595.28 L102.05 595.28 A11.3384 11.3384 -180 0 0 113.39 583.94 L113.39 549.92 A11.3384 11.3384 -180 0
						 0 102.05 538.58 L11.34 538.58 A11.3384 11.3384 -180 0 0 0 549.92 L0 583.94 A11.3384 11.3384 -180 0 0 11.34
						 595.28 Z" class="st3"/>
			<text x="24.69" y="571.73" class="st4" v:langID="2052"><v:paragraph v:horizAlign="1"/><v:tabList/>推荐引擎</text>		</g>
		<g id="shape8-37" v:mID="8" v:groupContext="shape" v:layerMember="0" transform="translate(255.118,-488.976)">
			<title>动态连接线</title>
			<desc>特征提取</desc>
			<v:textBlock v:margins="rect(4,4,4,4)" v:tabSpace="42.5197"/>
			<v:textRect cx="63.7795" cy="588.189" width="80.01" height="27.2035"/>
			<path d="M0 588.19 L120.52 588.19" class="st5"/>
			<rect v:rectContext="textBkgnd" x="31.7798" y="578.589" width="63.9998" height="19.2" class="st7"/>
			<text x="31.78" y="592.99" class="st4" v:langID="2052"><v:paragraph v:horizAlign="1"/><v:tabList/>特征提取</text>		</g>
		<g id="shape9-45" v:mID="9" v:groupContext="shape" v:layerMember="0" transform="translate(432.283,-467.717)">
			<title>动态连接线.9</title>
			<desc>用户特征学习</desc>
			<v:textBlock v:margins="rect(4,4,4,4)" v:tabSpace="42.5197"/>
			<v:textRect cx="7.08661" cy="666.142" width="112.01" height="27.2035"/>
			<path d="M7.09 595.28 L7.09 729.97" class="st5"/>
			<rect v:rectContext="textBkgnd" x="-40.9131" y="656.542" width="95.9996" height="19.2" class="st7"/>
			<text x="-40.91" y="670.94" class="st4" v:langID="2052"><v:paragraph v:horizAlign="1"/><v:tabList/>用户特征学习</text>		</g>
		<g id="shape10-52" v:mID="10" v:groupContext="shape" v:layerMember="0" transform="translate(432.283,-269.291)">
			<title>动态连接线.10</title>
			<path d="M7.09 595.28 L7.09 687.45" class="st5"/>
		</g>
		<g id="shape13-57" v:mID="13" v:groupContext="shape" v:layerMember="0" transform="translate(382.677,-290.551)">
			<title>动态连接线.13</title>
			<path d="M0 588.19 L-106.35 588.19" class="st5"/>
		</g>
		<g id="shape14-62" v:mID="14" v:groupContext="shape" v:layerMember="0" transform="translate(205.512,-269.291)">
			<title>动态连接线.14</title>
			<desc>推荐结果</desc>
			<v:textBlock v:margins="rect(4,4,4,4)" v:tabSpace="42.5197"/>
			<v:textRect cx="7.08661" cy="644.882" width="80.01" height="27.2035"/>
			<path d="M7.09 595.28 L7.09 687.45" class="st5"/>
			<rect v:rectContext="textBkgnd" x="-24.9132" y="635.282" width="63.9998" height="19.2" class="st7"/>
			<text x="-24.91" y="649.68" class="st4" v:langID="2052"><v:paragraph v:horizAlign="1"/><v:tabList/>推荐结果</text>		</g>
		<g id="shape15-69" v:mID="15" v:groupContext="shape" v:layerMember="0" transform="translate(269.291,-134.646)">
			<title>动态连接线.15</title>
			<path d="M0 588.19 L106.35 588.19" class="st5"/>
		</g>
	</g>
</svg>
